<svg xmlns="http://www.w3.org/2000/svg" data-name="Layer 1" viewBox="0 0 100 125" x="0px" y="0px"><title>Glyph</title><path d="M81,52.65a23.79,23.79,0,1,0-36.52-3.51l-2.28,2.28,1.13,1.13-2.84,2.83-1.12-1.13-26,26a4.53,4.53,0,1,0,6.4,6.4l26-26-1.13-1.13,2.83-2.83,1.13,1.13,2.28-2.28A23.81,23.81,0,0,0,81,52.65ZM51.42,48.58a18,18,0,1,1,25.51,0A18.06,18.06,0,0,1,51.42,48.58Z"/><path d="M76.22,42.25a16.88,16.88,0,0,0,1.64-8.66l-3.76.87a16.91,16.91,0,0,1-.9,12.13A17.26,17.26,0,0,0,76.22,42.25Z"/><text x="0" y="115" fill="#000000" font-size="5px" font-weight="bold" font-family="'Helvetica Neue', Helvetica, Arial-Unicode, Arial, Sans-serif">Created by Ben Hobson</text><text x="0" y="120" fill="#000000" font-size="5px" font-weight="bold" font-family="'Helvetica Neue', Helvetica, Arial-Unicode, Arial, Sans-serif">from the Noun Project</text></svg>